<svg width="72" height="95" viewBox="0 0 72 95" fill="none" xmlns="http://www.w3.org/2000/svg">
<path d="M58.4 45.55L56.9746 42.9103L51.6967 45.7603L57.1428 48.2739L58.4 45.55ZM13.68 45.55L14.9372 48.2739L20.3833 45.7603L15.1054 42.9103L13.68 45.55ZM59.8255 48.1897C67.3363 44.1338 72.19 36.0751 72.19 26.7H66.19C66.19 33.9649 62.4637 39.9462 56.9746 42.9103L59.8255 48.1897ZM72.19 26.7C72.19 9.07961 55.8455 -2.69001 36.04 -2.69001V3.30999C53.9345 3.30999 66.19 13.6404 66.19 26.7H72.19ZM36.04 -2.69001C16.2345 -2.69001 -0.11 9.07961 -0.11 26.7H5.89C5.89 13.6404 18.1455 3.30999 36.04 3.30999V-2.69001ZM-0.11 26.7C-0.11 36.0751 4.74366 44.1338 12.2546 48.1897L15.1054 42.9103C9.61634 39.9462 5.89 33.9649 5.89 26.7H-0.11ZM12.4228 42.8261C2.79979 47.2675 -2.45 56.4667 -2.45 67H3.55C3.55 58.5533 7.66021 51.6325 14.9372 48.2739L12.4228 42.8261ZM-2.45 67C-2.45 76.5623 1.79499 84.3546 8.8324 89.6733C15.7968 94.9369 25.354 97.69 36.04 97.69V91.69C26.316 91.69 18.1282 89.1781 12.4501 84.8867C6.84501 80.6504 3.55 74.5977 3.55 67H-2.45ZM36.04 97.69C46.726 97.69 56.2832 94.9369 63.2476 89.6733C70.285 84.3546 74.53 76.5623 74.53 67H68.53C68.53 74.5977 65.235 80.6504 59.6299 84.8867C53.9518 89.1781 45.764 91.69 36.04 91.69V97.69ZM74.53 67C74.53 56.4667 69.2802 47.2675 59.6572 42.8261L57.1428 48.2739C64.4198 51.6325 68.53 58.5533 68.53 67H74.53ZM36.04 24.11C39.7787 24.11 41.7084 24.9896 42.6828 25.8628C43.6062 26.6904 44.09 27.8892 44.09 29.56H50.09C50.09 26.6808 49.2088 23.6546 46.6872 21.3947C44.2166 19.1804 40.6213 18.11 36.04 18.11V24.11ZM44.09 29.56C44.09 31.102 43.655 31.9413 42.8778 32.5279C41.9204 33.2505 39.9408 33.97 36.04 33.97V39.97C40.4593 39.97 44.0047 39.1945 46.4922 37.3171C49.16 35.3037 50.09 32.438 50.09 29.56H44.09ZM36.04 33.97C32.1393 33.97 30.1596 33.2505 29.2022 32.5279C28.425 31.9413 27.99 31.102 27.99 29.56H21.99C21.99 32.438 22.92 35.3037 25.5878 37.3171C28.0754 39.1945 31.6208 39.97 36.04 39.97V33.97ZM27.99 29.56C27.99 27.8892 28.4738 26.6904 29.3972 25.8628C30.3716 24.9896 32.3013 24.11 36.04 24.11V18.11C31.4587 18.11 27.8634 19.1804 25.3928 21.3947C22.8712 23.6546 21.99 26.6808 21.99 29.56H27.99ZM36.04 70.89C31.8121 70.89 29.2145 70.1384 27.7482 69.1282C26.4795 68.2542 25.78 67.0029 25.78 64.92H19.78C19.78 68.6871 21.2255 71.9207 24.3443 74.0693C27.2655 76.0816 31.2979 76.89 36.04 76.89V70.89ZM25.78 64.92C25.78 62.7999 26.533 61.5842 27.8589 60.7352C29.4092 59.7426 32.0435 59.08 36.04 59.08V53.08C31.5865 53.08 27.5908 53.7824 24.6236 55.6823C21.432 57.7258 19.78 60.9301 19.78 64.92H25.78ZM36.04 59.08C40.0365 59.08 42.6708 59.7426 44.2211 60.7352C45.547 61.5842 46.3 62.7999 46.3 64.92H52.3C52.3 60.9301 50.648 57.7258 47.4564 55.6823C44.4892 53.7824 40.4935 53.08 36.04 53.08V59.08ZM46.3 64.92C46.3 67.0029 45.6005 68.2542 44.3318 69.1282C42.8655 70.1384 40.2679 70.89 36.04 70.89V76.89C40.7821 76.89 44.8145 76.0816 47.7357 74.0693C50.8545 71.9207 52.3 68.6871 52.3 64.92H46.3Z" fill="#22ECF3"/>
</svg>
