<svg width="144" height="93" viewBox="0 0 144 93" fill="none" xmlns="http://www.w3.org/2000/svg">
<path d="M0.25 1.99999V-1.00001H-2.75V1.99999H0.25ZM0.25 23.06H-2.75V26.06H0.25V23.06ZM39.9 23.06L42.5753 24.4175L44.7864 20.06H39.9V23.06ZM4.41 93L1.73472 91.6425L-0.47644 96H4.41V93ZM29.37 93V96H31.2342L32.0598 94.3286L29.37 93ZM66.55 17.73L69.2398 19.0586L69.55 18.4305V17.73H66.55ZM66.55 1.99999H69.55V-1.00001H66.55V1.99999ZM-2.75 1.99999V23.06H3.25V1.99999H-2.75ZM0.25 26.06H39.9V20.06H0.25V26.06ZM37.2247 21.7025L1.73472 91.6425L7.08528 94.3575L42.5753 24.4175L37.2247 21.7025ZM4.41 96H29.37V90H4.41V96ZM32.0598 94.3286L69.2398 19.0586L63.8603 16.4014L26.6802 91.6714L32.0598 94.3286ZM69.55 17.73V1.99999H63.55V17.73H69.55ZM66.55 -1.00001H0.25V4.99999H66.55V-1.00001ZM109.295 71.94L107.953 69.2567L109.295 74.94V71.94ZM109.555 71.81L110.896 74.4933L111.242 74.3204L111.533 74.0656L109.555 71.81ZM118.005 64.4L116.032 62.1397L116.027 62.1444L118.005 64.4ZM74.0646 33.72L71.0668 33.6062L70.9485 36.72H74.0646V33.72ZM96.2946 33.72V36.72H98.9797L99.2763 34.0513L96.2946 33.72ZM99.6746 54L101.648 56.2598L101.654 56.2545L99.6746 54ZM73.0246 77.27L71.0514 75.0102L70.0246 75.9068V77.27H73.0246ZM73.0246 93H70.0246V96H73.0246V93ZM143.485 93V96H146.485V93H143.485ZM143.485 71.94H146.485V68.94H143.485V71.94ZM110.636 74.6233L110.896 74.4933L108.213 69.1267L107.953 69.2567L110.636 74.6233ZM111.533 74.0656L119.983 66.6556L116.027 62.1444L107.577 69.5544L111.533 74.0656ZM119.977 66.6603C133.946 54.4691 144.795 45.619 144.795 29.82H138.795C138.795 42.361 130.663 49.3709 116.032 62.1397L119.977 66.6603ZM144.795 29.82C144.795 21.1943 141.544 13.0298 135.411 7.02297C129.264 1.00275 120.39 -2.69001 109.425 -2.69001V3.30999C119 3.30999 126.31 6.50724 131.213 11.3095C136.13 16.1252 138.795 22.7157 138.795 29.82H144.795ZM109.425 -2.69001C98.7663 -2.69001 89.3592 0.744186 82.49 7.11248C75.6077 13.493 71.4838 22.6253 71.0668 33.6062L77.0624 33.8338C77.4255 24.2746 80.9715 16.702 86.5692 11.5125C92.18 6.3108 100.063 3.30999 109.425 3.30999V-2.69001ZM74.0646 36.72H96.2946V30.72H74.0646V36.72ZM99.2763 34.0513C99.696 30.274 100.699 27.935 102.025 26.5431C103.273 25.2332 105.185 24.37 108.385 24.37V18.37C104.044 18.37 100.366 19.5868 97.6814 22.4044C95.075 25.14 93.8033 28.976 93.313 33.3887L99.2763 34.0513ZM108.385 24.37C111.911 24.37 113.814 25.424 114.851 26.5197C115.932 27.662 116.435 29.2333 116.435 30.86H122.435C122.435 28.0667 121.572 24.893 119.208 22.3953C116.8 19.851 113.178 18.37 108.385 18.37V24.37ZM116.435 30.86C116.435 31.9439 116.304 32.7257 115.971 33.5264C115.619 34.3741 114.968 35.4179 113.677 36.903C111.031 39.9464 106.28 44.2092 97.6954 51.7455L101.654 56.2545C110.099 48.8408 115.228 44.2636 118.205 40.8395C119.725 39.0908 120.821 37.494 121.513 35.8271C122.224 34.113 122.435 32.5061 122.435 30.86H116.435ZM97.7014 51.7402L71.0514 75.0102L74.9978 79.5298L101.648 56.2598L97.7014 51.7402ZM70.0246 77.27V93H76.0246V77.27H70.0246ZM73.0246 96H143.485V90H73.0246V96ZM146.485 93V71.94H140.485V93H146.485ZM143.485 68.94H109.295V74.94H143.485V68.94Z" fill="#22ECF3"/>
</svg>
