<svg width="219" height="95" viewBox="0 0 219 95" fill="none" xmlns="http://www.w3.org/2000/svg">
<path d="M32.49 1.99999V-1.00001H31.9296L31.407 -0.79771L32.49 1.99999ZM0.25 14.48L-0.832982 11.6823L-2.75 12.4244V14.48H0.25ZM0.25 36.19H-2.75V40.7012L1.41018 38.9566L0.25 36.19ZM20.4 27.74H23.4V23.2288L19.2398 24.9734L20.4 27.74ZM20.4 93H17.4V96H20.4V93ZM42.5 93V96H45.5V93H42.5ZM42.5 1.99999H45.5V-1.00001H42.5V1.99999ZM31.407 -0.79771L-0.832982 11.6823L1.33298 17.2777L33.573 4.7977L31.407 -0.79771ZM-2.75 14.48V36.19H3.25V14.48H-2.75ZM1.41018 38.9566L21.5602 30.5066L19.2398 24.9734L-0.91018 33.4234L1.41018 38.9566ZM17.4 27.74V93H23.4V27.74H17.4ZM20.4 96H42.5V90H20.4V96ZM45.5 93V1.99999H39.5V93H45.5ZM42.5 -1.00001H32.49V4.99999H42.5V-1.00001ZM94.3598 62.58L96.7034 64.4529L93.1781 59.8226L94.3598 62.58ZM70.0498 93L67.7063 91.1271L63.8121 96H70.0498V93ZM96.1798 93V96H97.6729L98.5732 94.8089L96.1798 93ZM91.8898 -2.69001C70.6828 -2.69001 53.1398 12.1008 53.1398 34.76H59.1398C59.1398 15.8192 73.5768 3.30999 91.8898 3.30999V-2.69001ZM53.1398 34.76C53.1398 45.5669 57.1355 53.7846 63.3329 59.2691C69.4712 64.7012 77.5583 67.27 85.5198 67.27V61.27C78.7914 61.27 72.1884 59.0938 67.3092 54.7759C62.4892 50.5104 59.1398 43.9731 59.1398 34.76H53.1398ZM85.5198 67.27C89.5265 67.27 92.4034 66.6824 95.5416 65.3374L93.1781 59.8226C90.8563 60.8176 88.7931 61.27 85.5198 61.27V67.27ZM92.0163 60.7071L67.7063 91.1271L72.3934 94.8729L96.7034 64.4529L92.0163 60.7071ZM70.0498 96H96.1798V90H70.0498V96ZM98.5732 94.8089C106.923 83.7609 115.013 73.8065 120.929 64.2389C126.886 54.6053 130.9 44.9764 130.9 34.37H124.9C124.9 43.3936 121.504 51.8997 115.826 61.0836C110.106 70.3335 102.336 79.8791 93.7865 91.1911L98.5732 94.8089ZM130.9 34.37C130.9 11.7639 112.753 -2.69001 91.8898 -2.69001V3.30999C110.027 3.30999 124.9 15.6361 124.9 34.37H130.9ZM92.0198 44.63C88.6326 44.63 86.0346 43.6356 84.3153 42.0567C82.6297 40.5086 81.4998 38.137 81.4998 34.76H75.4998C75.4998 39.573 77.165 43.6364 80.2569 46.4758C83.315 49.2844 87.4771 50.63 92.0198 50.63V44.63ZM81.4998 34.76C81.4998 31.3717 82.6399 28.8349 84.378 27.1441C86.127 25.4427 88.7175 24.37 92.0198 24.37V18.37C87.3922 18.37 83.2227 19.8973 80.1942 22.8434C77.1548 25.8001 75.4998 29.9583 75.4998 34.76H81.4998ZM92.0198 24.37C95.3222 24.37 97.9127 25.4427 99.6617 27.1441C101.4 28.8349 102.54 31.3717 102.54 34.76H108.54C108.54 29.9583 106.885 25.8001 103.845 22.8434C100.817 19.8973 96.6475 18.37 92.0198 18.37V24.37ZM102.54 34.76C102.54 38.137 101.41 40.5086 99.7244 42.0567C98.005 43.6356 95.4071 44.63 92.0198 44.63V50.63C96.5626 50.63 100.725 49.2844 103.783 46.4758C106.875 43.6364 108.54 39.573 108.54 34.76H102.54ZM177.959 -2.69001C164.54 -2.69001 153.594 2.35752 146.053 11.3498C138.563 20.281 134.659 32.8256 134.659 47.5H140.659C140.659 33.8344 144.295 22.784 150.65 15.2052C156.954 7.68747 166.158 3.30999 177.959 3.30999V-2.69001ZM134.659 47.5C134.659 62.1744 138.563 74.719 146.053 83.6502C153.594 92.6425 164.54 97.69 177.959 97.69V91.69C166.158 91.69 156.954 87.3125 150.65 79.7948C144.295 72.216 140.659 61.1656 140.659 47.5H134.659ZM177.959 97.69C191.378 97.69 202.324 92.6425 209.865 83.6502C217.355 74.719 221.259 62.1744 221.259 47.5H215.259C215.259 61.1656 211.623 72.216 205.268 79.7948C198.964 87.3125 189.76 91.69 177.959 91.69V97.69ZM221.259 47.5C221.259 32.8256 217.355 20.281 209.865 11.3498C202.324 2.35752 191.378 -2.69001 177.959 -2.69001V3.30999C189.76 3.30999 198.964 7.68747 205.268 15.2052C211.623 22.784 215.259 33.8344 215.259 47.5H221.259ZM177.959 70.63C172.375 70.63 168.919 68.6748 166.68 65.2217C164.278 61.5172 163.019 55.6924 163.019 47.5H157.019C157.019 56.0776 158.295 63.3178 161.646 68.4858C165.159 73.9052 170.673 76.63 177.959 76.63V70.63ZM163.019 47.5C163.019 39.3076 164.278 33.4828 166.68 29.7783C168.919 26.3252 172.375 24.37 177.959 24.37V18.37C170.673 18.37 165.159 21.0948 161.646 26.5142C158.295 31.6822 157.019 38.9224 157.019 47.5H163.019ZM177.959 24.37C183.543 24.37 186.999 26.3252 189.238 29.7783C191.64 33.4828 192.899 39.3076 192.899 47.5H198.899C198.899 38.9224 197.623 31.6822 194.272 26.5142C190.759 21.0948 185.245 18.37 177.959 18.37V24.37ZM192.899 47.5C192.899 55.6924 191.64 61.5172 189.238 65.2217C186.999 68.6748 183.543 70.63 177.959 70.63V76.63C185.245 76.63 190.759 73.9052 194.272 68.4858C197.623 63.3178 198.899 56.0776 198.899 47.5H192.899Z" fill="#22ECF3"/>
</svg>
