<svg width="26" height="26" viewBox="0 0 26 26" fill="none" xmlns="http://www.w3.org/2000/svg">
<g clip-path="url(#clip0_115_26)">
<path fill-rule="evenodd" clip-rule="evenodd" d="M13.4062 2.4379C13.2985 2.4379 13.1952 2.4807 13.119 2.55688C13.0428 2.63307 13 2.7364 13 2.84415V17.4691C13 18.5904 12.09 19.5004 10.9688 19.5004C9.8475 19.5004 8.9375 18.5904 8.9375 17.4691C8.9375 16.3479 9.8475 15.4379 10.9688 15.4379C11.0765 15.4379 11.1798 15.3951 11.256 15.3189C11.3322 15.2427 11.375 15.1394 11.375 15.0316V11.7816C11.375 11.6739 11.3322 11.5706 11.256 11.4944C11.1798 11.4182 11.0765 11.3754 10.9688 11.3754C7.605 11.3754 4.875 14.1058 4.875 17.4691C4.875 20.8329 7.605 23.5629 10.9688 23.5629C14.3321 23.5629 17.0625 20.8329 17.0625 17.4691V9.95108C17.9559 10.3555 18.9256 10.5641 19.9062 10.5629H20.7188C20.8265 10.5629 20.9298 10.5201 21.006 10.4439C21.0822 10.3677 21.125 10.2644 21.125 10.1566V6.90665C21.125 6.7989 21.0822 6.69557 21.006 6.61939C20.9298 6.5432 20.8265 6.5004 20.7188 6.5004H19.9062C18.3369 6.5004 17.0625 5.22599 17.0625 3.65665V2.84415C17.0625 2.7364 17.0197 2.63307 16.9435 2.55688C16.8673 2.4807 16.764 2.4379 16.6562 2.4379H13.4062Z" fill="#33B7BC"/>
</g>
<defs>
<clipPath id="clip0_115_26">
<rect width="26" height="26" fill="white"/>
</clipPath>
</defs>
</svg>
