<svg width="26" height="26" viewBox="0 0 26 26" fill="none" xmlns="http://www.w3.org/2000/svg">
<path d="M25.241 7.90832C25.241 7.69166 24.916 5.95832 24.1577 5.19999C23.1827 4.11666 22.0993 4.00832 21.5577 4.00832H21.4493C18.091 3.79166 13.1077 3.79166 12.9993 3.79166C12.9993 3.79166 7.90768 3.79166 4.54935 4.00832H4.44102C3.89935 4.00832 2.81602 4.11666 1.84102 5.19999C1.08268 6.06666 0.757682 7.79999 0.757682 8.01666C0.757682 8.12499 0.541016 10.075 0.541016 12.1333V13.975C0.541016 16.0333 0.757682 17.9833 0.757682 18.0917C0.757682 18.3083 1.08268 20.0417 1.84102 20.8C2.70768 21.775 3.79102 21.8833 4.44102 21.9917H4.76602C6.71602 22.2083 12.6743 22.2083 12.891 22.2083C12.891 22.2083 17.9827 22.2083 21.341 21.9917H21.4493C21.991 21.8833 23.0743 21.775 24.0493 20.8C24.8077 19.9333 25.1327 18.2 25.1327 17.9833C25.1327 17.875 25.3493 15.925 25.3493 13.8667V12.025C25.4577 10.075 25.241 8.01666 25.241 7.90832ZM17.2243 13.2167L10.7243 16.6833C10.616 16.6833 10.616 16.7917 10.5077 16.7917C10.3993 16.7917 10.291 16.7917 10.291 16.6833C10.1827 16.575 10.0743 16.4667 10.0743 16.25V9.20832C10.0743 8.99166 10.1827 8.88332 10.291 8.77499C10.3993 8.66666 10.616 8.66666 10.8327 8.77499L17.3327 12.2417C17.5493 12.35 17.6577 12.4583 17.6577 12.675C17.6577 12.8917 17.441 13.1083 17.2243 13.2167Z" fill="#33B7BC"/>
</svg>
